<mxfile host="app.diagrams.net" modified="2021-08-09T19:44:43.542Z" agent="5.0 (Macintosh; Intel Mac OS X 10_15_7) AppleWebKit/537.36 (KHTML, like Gecko) Chrome/92.0.4515.131 Safari/537.36" etag="Na8VFq8Pnf0IVHsZLTVV" version="14.9.5" type="github">
  <diagram id="RH_4mg12ctE28H-8P0Vb" name="Page-1">
    <mxGraphModel dx="1426" dy="706" grid="1" gridSize="10" guides="1" tooltips="1" connect="1" arrows="1" fold="1" page="1" pageScale="1" pageWidth="850" pageHeight="1100" math="0" shadow="0">
      <root>
        <mxCell id="0" />
        <mxCell id="1" parent="0" />
        <mxCell id="Htj8nYQmE8OiPokMggfK-5" style="edgeStyle=orthogonalEdgeStyle;rounded=0;orthogonalLoop=1;jettySize=auto;html=1;entryX=0;entryY=0.5;entryDx=0;entryDy=0;" parent="1" source="Htj8nYQmE8OiPokMggfK-1" target="Htj8nYQmE8OiPokMggfK-4" edge="1">
          <mxGeometry relative="1" as="geometry" />
        </mxCell>
        <mxCell id="Htj8nYQmE8OiPokMggfK-1" value="ASP.NET MVC UI" style="rounded=0;whiteSpace=wrap;html=1;fillColor=#d5e8d4;strokeColor=#82b366;" parent="1" vertex="1">
          <mxGeometry x="180" y="200" width="110" height="60" as="geometry" />
        </mxCell>
        <mxCell id="Htj8nYQmE8OiPokMggfK-2" value="MYSQL db" style="shape=cylinder3;whiteSpace=wrap;html=1;boundedLbl=1;backgroundOutline=1;size=15;fillColor=#a20025;strokeColor=#6F0000;fontColor=#ffffff;" parent="1" vertex="1">
          <mxGeometry x="560" y="190" width="60" height="80" as="geometry" />
        </mxCell>
        <mxCell id="Htj8nYQmE8OiPokMggfK-6" style="edgeStyle=orthogonalEdgeStyle;rounded=0;orthogonalLoop=1;jettySize=auto;html=1;" parent="1" source="Htj8nYQmE8OiPokMggfK-4" target="Htj8nYQmE8OiPokMggfK-2" edge="1">
          <mxGeometry relative="1" as="geometry" />
        </mxCell>
        <mxCell id="Htj8nYQmE8OiPokMggfK-4" value="NodeJs API" style="rounded=0;whiteSpace=wrap;html=1;fillColor=#0050ef;strokeColor=#001DBC;fontColor=#ffffff;" parent="1" vertex="1">
          <mxGeometry x="370" y="200" width="120" height="60" as="geometry" />
        </mxCell>
        <mxCell id="Htj8nYQmE8OiPokMggfK-7" value="Multi Container Flow Digram" style="text;html=1;strokeColor=none;fillColor=none;align=center;verticalAlign=middle;whiteSpace=wrap;rounded=0;fontSize=26;" parent="1" vertex="1">
          <mxGeometry x="200" y="90" width="390" height="60" as="geometry" />
        </mxCell>
      </root>
    </mxGraphModel>
  </diagram>
</mxfile>
